<svg width="215" height="20" viewBox="0 0 215 20" fill="none" xmlns="http://www.w3.org/2000/svg">
<path d="M212.388 14.8128C212.388 14.3583 212.316 13.9572 212.174 13.6096C212.04 13.2531 211.799 12.9323 211.452 12.6471C211.113 12.3619 210.641 12.09 210.035 11.8316C209.438 11.5731 208.68 11.3102 207.762 11.0428C206.799 10.7576 205.93 10.4412 205.155 10.0936C204.38 9.73708 203.716 9.33155 203.163 8.877C202.61 8.42246 202.187 7.90107 201.893 7.31283C201.599 6.7246 201.452 6.05169 201.452 5.29412C201.452 4.53654 201.608 3.8369 201.92 3.19519C202.232 2.55348 202.677 1.99643 203.257 1.52406C203.845 1.04278 204.544 0.668449 205.356 0.401069C206.167 0.13369 207.071 0 208.069 0C209.531 0 210.77 0.280749 211.786 0.842246C212.811 1.39483 213.591 2.12121 214.126 3.02139C214.66 3.91266 214.928 4.86631 214.928 5.88235H212.361C212.361 5.15152 212.205 4.50535 211.893 3.94385C211.581 3.37344 211.109 2.92781 210.476 2.60695C209.843 2.27718 209.041 2.1123 208.069 2.1123C207.151 2.1123 206.394 2.25045 205.797 2.52674C205.2 2.80303 204.754 3.17736 204.46 3.64973C204.175 4.1221 204.032 4.66132 204.032 5.26738C204.032 5.67736 204.117 6.05169 204.286 6.39037C204.464 6.72014 204.736 7.02763 205.102 7.31283C205.476 7.59804 205.948 7.86096 206.519 8.1016C207.098 8.34225 207.789 8.57397 208.591 8.79679C209.696 9.10873 210.65 9.45633 211.452 9.83957C212.254 10.2228 212.913 10.6551 213.43 11.1364C213.956 11.6087 214.344 12.1479 214.593 12.754C214.852 13.3512 214.981 14.0285 214.981 14.7861C214.981 15.5793 214.821 16.2968 214.5 16.9385C214.179 17.5802 213.72 18.1283 213.123 18.5829C212.526 19.0374 211.808 19.3895 210.97 19.639C210.142 19.8797 209.215 20 208.19 20C207.29 20 206.403 19.8752 205.529 19.6257C204.665 19.3761 203.876 19.0018 203.163 18.5027C202.459 18.0036 201.893 17.3886 201.465 16.6578C201.046 15.918 200.837 15.0624 200.837 14.0909H203.404C203.404 14.7594 203.533 15.3342 203.791 15.8155C204.05 16.2879 204.402 16.68 204.847 16.992C205.302 17.3039 205.815 17.5356 206.385 17.6872C206.964 17.8298 207.566 17.9011 208.19 17.9011C209.09 17.9011 209.852 17.7763 210.476 17.5267C211.1 17.2772 211.572 16.9207 211.893 16.4572C212.223 15.9938 212.388 15.4456 212.388 14.8128Z" fill="white" fill-opacity="0.8"/>
<path d="M183.394 0.267385L188.447 10.0401L193.514 0.267385H196.442L189.73 12.4599V19.7326H187.15V12.4599L180.439 0.267385H183.394Z" fill="white" fill-opacity="0.8"/>
<path d="M169.814 1.99198L163.37 19.7326H160.737L168.156 0.267385H169.854L169.814 1.99198ZM175.215 19.7326L168.758 1.99198L168.718 0.267385H170.416L177.862 19.7326H175.215ZM174.881 12.5267V14.639H163.945V12.5267H174.881Z" fill="white" fill-opacity="0.8"/>
<path d="M151.248 0.267385V19.7326H148.708V0.267385H151.248ZM157.504 0.267385V2.37968H142.464V0.267385H157.504Z" fill="white" fill-opacity="0.8"/>
<path d="M134.887 14.8128C134.887 14.3583 134.816 13.9572 134.673 13.6096C134.539 13.2531 134.299 12.9323 133.951 12.6471C133.613 12.3619 133.14 12.09 132.534 11.8316C131.937 11.5731 131.179 11.3102 130.261 11.0428C129.299 10.7576 128.43 10.4412 127.654 10.0936C126.879 9.73708 126.215 9.33155 125.662 8.877C125.11 8.42246 124.687 7.90107 124.392 7.31283C124.098 6.7246 123.951 6.05169 123.951 5.29412C123.951 4.53654 124.107 3.8369 124.419 3.19519C124.731 2.55348 125.177 1.99643 125.756 1.52406C126.344 1.04278 127.044 0.668449 127.855 0.401069C128.666 0.13369 129.571 0 130.569 0C132.031 0 133.269 0.280749 134.285 0.842246C135.31 1.39483 136.09 2.12121 136.625 3.02139C137.16 3.91266 137.427 4.86631 137.427 5.88235H134.86C134.86 5.15152 134.704 4.50535 134.392 3.94385C134.08 3.37344 133.608 2.92781 132.975 2.60695C132.343 2.27718 131.54 2.1123 130.569 2.1123C129.651 2.1123 128.893 2.25045 128.296 2.52674C127.699 2.80303 127.253 3.17736 126.959 3.64973C126.674 4.1221 126.531 4.66132 126.531 5.26738C126.531 5.67736 126.616 6.05169 126.785 6.39037C126.964 6.72014 127.236 7.02763 127.601 7.31283C127.975 7.59804 128.448 7.86096 129.018 8.1016C129.597 8.34225 130.288 8.57397 131.09 8.79679C132.195 9.10873 133.149 9.45633 133.951 9.83957C134.753 10.2228 135.413 10.6551 135.93 11.1364C136.456 11.6087 136.843 12.1479 137.093 12.754C137.351 13.3512 137.481 14.0285 137.481 14.7861C137.481 15.5793 137.32 16.2968 136.999 16.9385C136.679 17.5802 136.22 18.1283 135.622 18.5829C135.025 19.0374 134.308 19.3895 133.47 19.639C132.641 19.8797 131.714 20 130.689 20C129.789 20 128.902 19.8752 128.029 19.6257C127.164 19.3761 126.375 19.0018 125.662 18.5027C124.958 18.0036 124.392 17.3886 123.965 16.6578C123.546 15.918 123.336 15.0624 123.336 14.0909H125.903C125.903 14.7594 126.032 15.3342 126.291 15.8155C126.549 16.2879 126.901 16.68 127.347 16.992C127.802 17.3039 128.314 17.5356 128.884 17.6872C129.464 17.8298 130.065 17.9011 130.689 17.9011C131.589 17.9011 132.351 17.7763 132.975 17.5267C133.599 17.2772 134.072 16.9207 134.392 16.4572C134.722 15.9938 134.887 15.4456 134.887 14.8128Z" fill="white" fill-opacity="0.8"/>
<path d="M118.366 16.6043V19.7326H108.005V16.6043H118.366ZM109.316 0.267385V19.7326H105.305V0.267385H109.316ZM117.016 8.19519V11.2433H108.005V8.19519H117.016ZM118.353 0.267385V3.4091H108.005V0.267385H118.353Z" fill="white"/>
<path d="M84.4792 0.267385H91.7385C93.2269 0.267385 94.5059 0.490201 95.5754 0.935834C96.6539 1.38147 97.4827 2.041 98.062 2.91444C98.6414 3.78788 98.931 4.86186 98.931 6.13637C98.931 7.17915 98.7528 8.07487 98.3963 8.82353C98.0487 9.56328 97.554 10.1827 96.9123 10.6818C96.2795 11.172 95.5353 11.5642 94.6797 11.8583L93.4096 12.5267H87.0995L87.0727 9.3984H91.7653C92.4694 9.3984 93.0531 9.27362 93.5166 9.02407C93.9801 8.77451 94.3277 8.42692 94.5594 7.98129C94.8 7.53566 94.9203 7.01872 94.9203 6.43049C94.9203 5.8066 94.8045 5.26738 94.5727 4.81284C94.341 4.35829 93.989 4.0107 93.5166 3.77006C93.0442 3.52942 92.4515 3.4091 91.7385 3.4091H88.4899V19.7326H84.4792V0.267385ZM95.3615 19.7326L90.923 11.0562L95.161 11.0294L99.653 19.5455V19.7326H95.3615Z" fill="white"/>
<path d="M73.8942 0.267385H77.8915V13.1283C77.8915 14.6257 77.5706 15.8868 76.9289 16.9118C76.2961 17.9367 75.4182 18.7077 74.2952 19.2246C73.1811 19.7415 71.8977 20 70.445 20C68.9922 20 67.6999 19.7415 66.568 19.2246C65.445 18.7077 64.5626 17.9367 63.9209 16.9118C63.2881 15.8868 62.9717 14.6257 62.9717 13.1283V0.267385H66.9824V13.1283C66.9824 14.0018 67.1205 14.7148 67.3968 15.2674C67.6731 15.82 68.0697 16.2255 68.5867 16.484C69.1125 16.7424 69.7319 16.8717 70.445 16.8717C71.1758 16.8717 71.7952 16.7424 72.3033 16.484C72.8202 16.2255 73.2123 15.82 73.4797 15.2674C73.756 14.7148 73.8942 14.0018 73.8942 13.1283V0.267385Z" fill="white"/>
<path d="M51.5845 0.267385V19.7326H47.5872V0.267385H51.5845ZM57.5738 0.267385V3.4091H41.6915V0.267385H57.5738Z" fill="white"/>
<path d="M30.7722 3.59626L25.4781 19.7326H21.2134L28.446 0.267385H31.1599L30.7722 3.59626ZM35.1706 19.7326L29.8631 3.59626L29.4353 0.267385H32.1759L39.4487 19.7326H35.1706ZM34.93 12.4866V15.6283H24.6492V12.4866H34.93Z" fill="white"/>
<path d="M15.8422 0.267385V19.7326H11.8316L4.0107 6.6845V19.7326H0V0.267385H4.0107L11.8449 13.3289V0.267385H15.8422Z" fill="white"/>
</svg>
